# xmcd CD database file
#
# Track frame offsets:
#	150
#	25510
#	51940
#	79515
#	114210
#	133561
#	147840
#	173355
#	207950
#	235860
#	243480
#
# Disc length: 3573 seconds
#
# Revision: 1
# Processed by: cddbd v1.5.2PL0 Copyright (c) Steve Scherf et al.
# Submitted via: CDex 1.70beta2
#
DISCID=810df30b
DTITLE=Reptet - Chicken or Beef?
DYEAR=2008
DGENRE=Jazz
TTITLE0=Danger Notes
TTITLE1=Reptet Score!
TTITLE2=eltiT
TTITLE3=Eve of Thrieve
TTITLE4=Chicken or Beef?
TTITLE5=That's Chicken or Beef
TTITLE6=Gwand Rabbit
TTITLE7=Fish Market
TTITLE8=Swanni
TTITLE9=Kill the Air
TTITLE10=Go Bears
EXTD=YEAR: 2008
EXTT0=
EXTT1=
EXTT2=
EXTT3=
EXTT4=
EXTT5=
EXTT6=
EXTT7=
EXTT8=
EXTT9=
EXTT10=
PLAYORDER=
